# xmcd
#
# Track frame offsets:
#	150
#	13917
#	28900
#	41335
#	53661
#	67939
#	82399
#	95688
#	107216
#	118026
#
# Disc length: 1784 seconds
# Revision: 0
# Processed by: cddbd v1.5.2PL0 Copyright (c) Steve Scherf et al.
# Submitted via: dBpowerAMP V12.0
#
DISCID=8706f60a
DTITLE=Merle Haggard - Ramblin' Fever [MCA] (L)
DYEAR=1977
DGENRE=Country
TTITLE0=Ramblin' Fever
TTITLE1=When  My Blue Moon Turns To Gold Again
TTITLE2=Ghost Story
TTITLE3=Set Me Free
TTITLE4=Love Somebody To Death
TTITLE5=If We're Not Back In Love By Monday
TTITLE6=I Think It's Gone Forever
TTITLE7=Ain't Your Memory Got No Pride At All
TTITLE8=My Love For You
TTITLE9=The Last Letter
EXTD=
EXTT0=
EXTT1=
EXTT2=
EXTT3=
EXTT4=
EXTT5=
EXTT6=
EXTT7=
EXTT8=
EXTT9=
PLAYORDER=
